<?xml version="1.0" encoding="utf-8"?>
<!-- Generator: Adobe Illustrator 26.0.2, SVG Export Plug-In . SVG Version: 6.00 Build 0)  -->
<svg version="1.1" id="Layer_1" xmlns="http://www.w3.org/2000/svg" xmlns:xlink="http://www.w3.org/1999/xlink" x="0px" y="0px"
	 viewBox="0 0 360 360" style="enable-background:new 0 0 360 360;" xml:space="preserve">
<style type="text/css">
	.st0{fill:#FFFFFF;}
</style>
<polygon class="st0" points="267.3,186.7 248.1,186.7 267.2,228.4 248.8,228.4 229.6,186.7 227.5,182.1 221.8,169.7 256.4,169.7 
	266.5,147.6 211.7,147.6 203.9,130.6 293,130.6 "/>
<path class="st0" d="M242.8,228.5l-19.1-41.7l-7.8-17l-10.1-22.2l-5.5-12l-2.3-5l-18,39.3l-17.9-39.1l-17.9,39h-5.9l17.9-39.1H67.6
	v97.9H90l0,0h45.9l26.1-57.1l8.6,18.9l0.7,1.5l8.7,18.9l9.3-20.4l8.7-18.9l26.1,57.1v0H242.8z M84.6,147.6h45.3l-10.1,22.2H84.6
	V147.6z M125,211.5H84.6v-24.8h51.8L125,211.5z"/>
</svg>
